<?xml version="1.0" standalone="no"?>
<!DOCTYPE svg PUBLIC "-//W3C//DTD SVG 20010904//EN"
 "http://www.w3.org/TR/2001/REC-SVG-20010904/DTD/svg10.dtd">
<svg version="1.0" xmlns="http://www.w3.org/2000/svg"
 width="776.000000pt" height="260.000000pt" viewBox="0 0 776.000000 260.000000"
 preserveAspectRatio="xMidYMid meet">

<g transform="translate(0.000000,260.000000) scale(0.100000,-0.100000)"
fill="#000000" stroke="none">
<path d="M0 1300 l0 -1300 2813 1 c1559 1 2776 5 2732 10 -715 74 -1300 384
-1500 794 -56 114 -75 194 -75 320 0 126 19 206 75 320 202 414 787 722 1514
795 133 13 479 13 612 0 727 -73 1312 -380 1514 -795 25 -49 51 -117 59 -150
13 -54 14 5 15 623 l1 682 -3880 0 -3880 0 0 -1300z m1617 1168 c-2 -13 -4 -3
-4 22 0 25 2 35 4 23 2 -13 2 -33 0 -45z m20 -30 c-2 -18 -4 -4 -4 32 0 36 2
50 4 33 2 -18 2 -48 0 -65z m63 77 c0 -8 -4 -15 -10 -15 -5 0 -7 7 -4 15 4 8
8 15 10 15 2 0 4 -7 4 -15z m420 11 c0 -11 -19 -15 -25 -6 -3 5 1 10 9 10 9 0
16 -2 16 -4z m-320 -20 c0 -2 -7 -7 -16 -10 -8 -3 -12 -2 -9 4 6 10 25 14 25
6z m587 -18 c-3 -8 -6 -5 -6 6 -1 11 2 17 5 13 3 -3 4 -12 1 -19z m-560 -20
c-3 -7 -5 -2 -5 12 0 14 2 19 5 13 2 -7 2 -19 0 -25z m3757 17 c3 -9 0 -15 -9
-15 -9 0 -12 6 -9 15 4 8 7 15 9 15 2 0 5 -7 9 -15z m93 -82 c-2 -21 -4 -6 -4
32 0 39 2 55 4 38 2 -18 2 -50 0 -70z m23 -3 c-7 -29 -8 -23 -8 35 0 58 1 64
8 35 5 -19 5 -51 0 -70z m170 96 c0 -2 -7 -9 -15 -16 -13 -11 -14 -10 -9 4 5
14 24 23 24 12z m-4383 -43 c-3 -10 -5 -4 -5 12 0 17 2 24 5 18 2 -7 2 -21 0
-30z m4147 19 c2 -4 -4 -8 -14 -8 -10 0 -16 4 -14 8 3 4 9 8 14 8 5 0 11 -4
14 -8z m393 -84 c-2 -18 -4 -4 -4 32 0 36 2 50 4 33 2 -18 2 -48 0 -65z m170
20 c-2 -13 -4 -3 -4 22 0 25 2 35 4 23 2 -13 2 -33 0 -45z m-4122 -1 c16 -5
15 -5 -4 -4 -14 1 -26 9 -28 17 -3 10 -2 11 4 4 4 -7 17 -14 28 -17z m100 9
l27 -14 -39 1 c-21 0 -29 2 -19 5 15 3 16 6 5 13 -22 14 -4 10 26 -5z m-638
-12 c-3 -3 -12 -4 -19 -1 -8 3 -5 6 6 6 11 1 17 -2 13 -5z m70 0 c-3 -3 -12
-4 -19 -1 -8 3 -5 6 6 6 11 1 17 -2 13 -5z m200 0 c-3 -3 -12 -4 -19 -1 -8 3
-5 6 6 6 11 1 17 -2 13 -5z m160 0 c-3 -3 -12 -4 -19 -1 -8 3 -5 6 6 6 11 1
17 -2 13 -5z m320 0 c-3 -3 -12 -4 -19 -1 -8 3 -5 6 6 6 11 1 17 -2 13 -5z
m60 0 c-3 -3 -12 -4 -19 -1 -8 3 -5 6 6 6 11 1 17 -2 13 -5z m70 0 c-3 -3 -12
-4 -19 -1 -8 3 -5 6 6 6 11 1 17 -2 13 -5z m3338 -12 c-3 -3 -11 0 -18 7 -9
10 -8 11 6 5 10 -3 15 -9 12 -12z m18 -13 c-6 -6 -19 -9 -29 -6 -16 4 -15 5 4
6 12 0 22 6 22 13 0 6 3 8 7 5 4 -4 2 -12 -4 -18z m80 0 c-6 -6 -19 -9 -29 -6
-16 4 -15 5 4 6 12 0 22 6 22 13 0 6 3 8 7 5 4 -4 2 -12 -4 -18z m-366 -5 c-3
-3 -12 -4 -19 -1 -8 3 -5 6 6 6 11 1 17 -2 13 -5z m140 0 c-3 -3 -12 -4 -19
-1 -8 3 -5 6 6 6 11 1 17 -2 13 -5z m280 0 c-3 -3 -12 -4 -19 -1 -8 3 -5 6 6
6 11 1 17 -2 13 -5z m186 -1 c-7 -2 -19 -2 -25 0 -7 3 -2 5 12 5 14 0 19 -2
13 -5z m74 1 c-3 -3 -12 -4 -19 -1 -8 3 -5 6 6 6 11 1 17 -2 13 -5z m-3956
-64 c727 -73 1312 -381 1514 -795 56 -114 75 -194 75 -320 0 -126 -19 -206
-75 -320 -202 -414 -787 -722 -1514 -795 -133 -13 -479 -13 -612 0 -727 73
-1312 381 -1514 795 -56 114 -75 194 -75 320 0 126 19 206 75 320 200 410 785
720 1500 794 118 12 507 13 626 1z"/>
<path d="M1704 2299 c-532 -34 -1018 -205 -1340 -471 -164 -135 -283 -316
-325 -493 -17 -73 -15 -219 5 -295 44 -173 161 -347 320 -478 464 -385 1253
-558 2010 -442 826 127 1409 571 1409 1075 0 337 -256 651 -706 865 -293 139
-609 215 -992 240 -174 11 -201 11 -381 -1z m-237 -317 l171 -133 -132 -224
c-72 -124 -135 -223 -140 -222 -16 5 -355 272 -356 280 0 8 177 315 237 410
16 25 28 35 37 30 7 -4 89 -68 183 -141z m-480 -775 c-1 -84 -3 -12 -3 158 0
171 2 239 3 152 2 -87 2 -227 0 -310z"/>
<path d="M5664 2229 c-532 -34 -1018 -205 -1340 -471 -164 -135 -283 -316
-325 -493 -17 -73 -15 -219 5 -295 44 -173 161 -347 320 -478 464 -385 1253
-558 2010 -442 826 127 1409 571 1409 1075 0 337 -256 651 -706 865 -293 139
-609 215 -992 240 -174 11 -201 11 -381 -1z m1184 -776 c31 -29 61 -53 66 -53
12 0 156 -111 156 -120 0 -8 -142 -131 -232 -200 -32 -25 -58 -49 -59 -55 0
-5 -3 -3 -7 6 -6 14 -82 75 -350 284 -2 2 61 59 140 127 l143 125 43 -30 c23
-17 68 -54 100 -84z m-1293 -87 c28 -22 64 -53 80 -69 17 -16 42 -35 58 -43
26 -14 27 -17 27 -104 0 -50 -3 -90 -6 -90 -12 0 -182 140 -188 155 -3 8 -10
14 -15 13 -5 -2 -39 19 -74 46 l-65 48 55 49 c31 27 61 46 67 42 6 -3 34 -25
61 -47z m250 -201 l40 -35 -30 -25 c-16 -15 -42 -35 -57 -46 l-28 -20 0 91 c0
103 -1 102 75 35z"/>
<path d="M7742 953 c-18 -85 -91 -227 -167 -321 -260 -323 -787 -558 -1390
-621 -49 -5 243 -9 748 -10 l827 -1 0 505 c0 278 -1 505 -3 505 -2 0 -8 -26
-15 -57z"/>
</g>
</svg>
